<?xml version="1.0" encoding="utf-8"?>
<!-- Generator: Adobe Illustrator 19.2.0, SVG Export Plug-In . SVG Version: 6.00 Build 0)  -->
<svg version="1.1" id="Layer_1" xmlns="http://www.w3.org/2000/svg" xmlns:xlink="http://www.w3.org/1999/xlink" x="0px" y="0px"
	 viewBox="0 0 53 53" style="enable-background:new 0 0 53 53;" xml:space="preserve">
<path id="Goodreads" d="M25.9,35.9c4.9,0,8.3-2.5,10.4-7.3h0.1v7.4c0,0.5,0,1.4-0.1,2.6c-0.1,1.2-0.5,2.5-1.2,3.9
	c-0.6,1.3-1.7,2.4-3.1,3.3c-1.4,1-3.4,1.5-5.9,1.6c-2.4,0-4.5-0.6-6.1-1.9c-1.7-1.2-2.7-3.2-3-6h-2.1c0.2,3.6,1.4,6.2,3.5,7.7
	c2,1.5,4.6,2.2,7.7,2.2c3.1,0,5.5-0.6,7.2-1.7c1.7-1.1,2.9-2.5,3.7-4.2c0.7-1.7,1.2-3.2,1.3-4.7c0.1-1.5,0.2-2.6,0.2-3.2V5h-2.1v6.7
	h-0.1c-0.8-2.5-2.2-4.3-4.1-5.6c-1.9-1.2-4-1.9-6.3-1.9c-4,0.1-7.1,1.6-9.2,4.7c-2.1,3-3.2,6.7-3.2,11.1c0,4.5,1,8.3,3.1,11.2
	C18.6,34.3,21.7,35.8,25.9,35.9z M18.2,10.6c1.7-2.7,4.2-4.2,7.7-4.3c3.5,0.1,6.2,1.5,7.9,4.1c1.7,2.7,2.6,5.9,2.6,9.6
	s-0.9,6.9-2.6,9.5c-1.7,2.8-4.3,4.2-7.9,4.3c-3.3-0.1-5.9-1.4-7.6-4.1c-1.8-2.6-2.6-5.8-2.6-9.7C15.6,16.5,16.5,13.3,18.2,10.6z"/>
</svg>
