<?xml version="1.0" encoding="utf-8"?>
<!-- Generator: Adobe Illustrator 19.2.0, SVG Export Plug-In . SVG Version: 6.00 Build 0)  -->
<svg version="1.1" id="Icons" xmlns="http://www.w3.org/2000/svg" xmlns:xlink="http://www.w3.org/1999/xlink" x="0px" y="0px"
	 viewBox="0 0 53 53" style="enable-background:new 0 0 53 53;" xml:space="preserve">
<path id="LinkedIn__x28_alt_x29_" d="M45.2,4.6H6.8C5,4.6,3.5,6.1,3.5,7.8v38.6c0,1.8,1.5,3.2,3.3,3.2h38.4c1.8,0,3.3-1.4,3.3-3.2
	V7.8C48.5,6.1,47,4.6,45.2,4.6z M17.2,42.3h-6.8V22h6.8V42.3z M13.8,19.2L13.8,19.2c-2.3,0-3.8-1.6-3.8-3.5c0-2,1.5-3.5,3.8-3.5
	c2.3,0,3.8,1.5,3.8,3.5C17.6,17.6,16.1,19.2,13.8,19.2z M41.7,42.3h-6.8V31.4c0-2.7-1-4.6-3.4-4.6c-1.9,0-3,1.3-3.5,2.5
	c-0.2,0.4-0.2,1-0.2,1.6v11.3h-6.8c0,0,0.1-18.4,0-20.3h6.8v2.9c0.9-1.4,2.5-3.4,6.1-3.4c4.5,0,7.8,2.9,7.8,9.1
	C41.7,30.6,41.7,42.3,41.7,42.3z M27.7,24.9C27.7,24.9,27.7,24.9,27.7,24.9L27.7,24.9L27.7,24.9z"/>
</svg>
