<?xml version="1.0" encoding="utf-8"?>
<!-- Generator: Adobe Illustrator 19.2.0, SVG Export Plug-In . SVG Version: 6.00 Build 0)  -->
<svg version="1.1" id="Icons" xmlns="http://www.w3.org/2000/svg" xmlns:xlink="http://www.w3.org/1999/xlink" x="0px" y="0px"
	 viewBox="0 0 53 53" style="enable-background:new 0 0 53 53;" xml:space="preserve">
<path id="Twitter__x28_alt_x29_" d="M43.9,24.8c2.5-0.2,4.2-1.4,4.9-2.9c-0.9,0.6-3.7,1.2-5.3,0.6c-0.1-0.4-0.2-0.7-0.2-1
	c-1.2-4.4-5.3-7.9-9.5-7.5c0.3-0.1,0.7-0.3,1-0.4c0.5-0.2,3.2-0.6,2.8-1.6c-0.4-0.9-3.7,0.6-4.4,0.8c0.8-0.3,2.2-0.9,2.4-1.8
	c-1.3,0.2-2.5,0.8-3.5,1.7c0.4-0.4,0.6-0.8,0.7-1.3c-3.4,2.2-5.4,6.6-7,10.9c-1.3-1.2-2.4-2.2-3.4-2.7c-2.8-1.5-6.2-3.1-11.5-5.1
	c-0.2,1.8,0.9,4.1,3.9,5.7c-0.6-0.1-1.8,0.1-2.8,0.3c0.4,2,1.6,3.7,5,4.5c-1.6,0.1-2.4,0.5-3.1,1.2c0.7,1.4,2.4,3.1,5.5,2.7
	c-3.5,1.5-1.4,4.2,1.4,3.8c-4.8,5-12.4,4.6-16.7,0.4c11.3,15.4,36,9.1,39.6-5.7c2.7,0,4.4-1,5.4-2C47.4,25.6,45.1,25.3,43.9,24.8z"
	/>
</svg>
